<mxfile host="65bd71144e">
    <diagram id="Mc-XLXgZvTSOS3mjzwkr" name="Страница 1">
        <mxGraphModel dx="587" dy="235" grid="1" gridSize="10" guides="1" tooltips="1" connect="1" arrows="1" fold="1" page="1" pageScale="1" pageWidth="827" pageHeight="1169" math="0" shadow="0">
            <root>
                <mxCell id="0"/>
                <mxCell id="1" parent="0"/>
                <mxCell id="4" value="&lt;font style=&quot;font-size: 24px&quot;&gt;Блок схема метода&lt;br&gt;&lt;br&gt;&lt;/font&gt;" style="text;html=1;align=center;verticalAlign=middle;resizable=0;points=[];autosize=1;strokeColor=none;fillColor=none;" vertex="1" parent="1">
                    <mxGeometry x="184" y="80" width="230" height="40" as="geometry"/>
                </mxCell>
                <mxCell id="21" value="" style="edgeStyle=none;html=1;fontSize=14;" edge="1" parent="1" source="5" target="19">
                    <mxGeometry relative="1" as="geometry"/>
                </mxCell>
                <mxCell id="5" value="&lt;font size=&quot;3&quot;&gt;Начало&lt;/font&gt;" style="ellipse;whiteSpace=wrap;html=1;fontSize=24;" vertex="1" parent="1">
                    <mxGeometry x="250" y="100" width="90" height="50" as="geometry"/>
                </mxCell>
                <mxCell id="11" value="" style="edgeStyle=none;html=1;fontSize=12;" edge="1" parent="1" source="8" target="10">
                    <mxGeometry relative="1" as="geometry"/>
                </mxCell>
                <mxCell id="8" value="&lt;div style=&quot;color: rgb(212 , 212 , 212) ; background-color: rgb(30 , 30 , 30) ; font-family: &amp;#34;consolas&amp;#34; , &amp;#34;courier new&amp;#34; , monospace ; font-size: 14px ; line-height: 19px&quot;&gt;&lt;div&gt;&lt;span style=&quot;color: #569cd6&quot;&gt;string&lt;/span&gt;[] &lt;span style=&quot;color: #9cdcfe&quot;&gt;result&lt;/span&gt;;&lt;/div&gt;&lt;div&gt;&amp;nbsp; &amp;nbsp; &lt;span style=&quot;color: #569cd6&quot;&gt;string&lt;/span&gt; &lt;span style=&quot;color: #9cdcfe&quot;&gt;temp&lt;/span&gt; = &lt;span style=&quot;color: #4ec9b0&quot;&gt;String&lt;/span&gt;.&lt;span style=&quot;color: #9cdcfe&quot;&gt;Empty&lt;/span&gt;;&lt;/div&gt;&lt;/div&gt;" style="whiteSpace=wrap;html=1;fontSize=24;" vertex="1" parent="1">
                    <mxGeometry x="165" y="240" width="260" height="50" as="geometry"/>
                </mxCell>
                <mxCell id="13" value="" style="edgeStyle=none;html=1;fontSize=14;" edge="1" parent="1" source="10" target="12">
                    <mxGeometry relative="1" as="geometry"/>
                </mxCell>
                <mxCell id="10" value="&lt;font style=&quot;font-size: 14px&quot;&gt;i = 0&lt;/font&gt;" style="whiteSpace=wrap;html=1;fontSize=24;" vertex="1" parent="1">
                    <mxGeometry x="237.5" y="330" width="115" height="35" as="geometry"/>
                </mxCell>
                <mxCell id="15" value="" style="edgeStyle=none;html=1;fontSize=14;" edge="1" parent="1" source="12" target="14">
                    <mxGeometry relative="1" as="geometry"/>
                </mxCell>
                <mxCell id="40" value="" style="edgeStyle=none;html=1;fontSize=14;" edge="1" parent="1" source="12" target="39">
                    <mxGeometry relative="1" as="geometry"/>
                </mxCell>
                <mxCell id="12" value="&lt;div style=&quot;color: rgb(212 , 212 , 212) ; background-color: rgb(30 , 30 , 30) ; font-family: &amp;#34;consolas&amp;#34; , &amp;#34;courier new&amp;#34; , monospace ; font-size: 14px ; line-height: 19px&quot;&gt;&lt;span style=&quot;color: #9cdcfe&quot;&gt;i&lt;/span&gt; &amp;lt; &lt;span style=&quot;color: #9cdcfe&quot;&gt;massiv&lt;/span&gt;.&lt;span style=&quot;color: #9cdcfe&quot;&gt;Length&lt;/span&gt;&lt;/div&gt;" style="rhombus;whiteSpace=wrap;html=1;fontSize=24;" vertex="1" parent="1">
                    <mxGeometry x="210" y="390" width="170" height="150" as="geometry"/>
                </mxCell>
                <mxCell id="18" value="" style="edgeStyle=none;html=1;fontSize=14;" edge="1" parent="1" source="14" target="17">
                    <mxGeometry relative="1" as="geometry"/>
                </mxCell>
                <mxCell id="24" value="" style="edgeStyle=none;html=1;fontSize=14;" edge="1" parent="1" source="14" target="23">
                    <mxGeometry relative="1" as="geometry"/>
                </mxCell>
                <mxCell id="14" value="&lt;div style=&quot;color: rgb(212 , 212 , 212) ; background-color: rgb(30 , 30 , 30) ; font-family: &amp;#34;consolas&amp;#34; , &amp;#34;courier new&amp;#34; , monospace ; font-size: 14px ; line-height: 19px&quot;&gt;&lt;span style=&quot;color: #9cdcfe&quot;&gt;massiv&lt;/span&gt;[&lt;span style=&quot;color: #9cdcfe&quot;&gt;i&lt;/span&gt;].&lt;span style=&quot;color: #9cdcfe&quot;&gt;Length&lt;/span&gt; &amp;lt; &lt;span style=&quot;color: #b5cea8&quot;&gt;4&lt;/span&gt;&lt;/div&gt;" style="rhombus;whiteSpace=wrap;html=1;fontSize=24;" vertex="1" parent="1">
                    <mxGeometry x="195" y="590" width="200" height="130" as="geometry"/>
                </mxCell>
                <mxCell id="16" value="No" style="text;html=1;align=center;verticalAlign=middle;resizable=0;points=[];autosize=1;strokeColor=none;fillColor=none;fontSize=14;" vertex="1" parent="1">
                    <mxGeometry x="260" y="550" width="30" height="20" as="geometry"/>
                </mxCell>
                <mxCell id="36" style="edgeStyle=none;html=1;fontSize=14;" edge="1" parent="1" source="17">
                    <mxGeometry relative="1" as="geometry">
                        <mxPoint x="350" y="800" as="targetPoint"/>
                        <Array as="points">
                            <mxPoint x="575" y="800"/>
                        </Array>
                    </mxGeometry>
                </mxCell>
                <mxCell id="17" value="&lt;div style=&quot;color: rgb(212 , 212 , 212) ; background-color: rgb(30 , 30 , 30) ; font-family: &amp;#34;consolas&amp;#34; , &amp;#34;courier new&amp;#34; , monospace ; font-size: 14px ; line-height: 19px&quot;&gt;&lt;span style=&quot;color: #9cdcfe&quot;&gt;temp&lt;/span&gt; = &lt;span style=&quot;color: #9cdcfe&quot;&gt;temp&lt;/span&gt; + &lt;span style=&quot;color: #9cdcfe&quot;&gt;massiv&lt;/span&gt;[&lt;span style=&quot;color: #9cdcfe&quot;&gt;i&lt;/span&gt;] + &lt;span style=&quot;color: #ce9178&quot;&gt;&quot; &quot;&lt;/span&gt;&lt;/div&gt;" style="whiteSpace=wrap;html=1;fontSize=24;" vertex="1" parent="1">
                    <mxGeometry x="450" y="625" width="250" height="60" as="geometry"/>
                </mxCell>
                <mxCell id="20" value="" style="edgeStyle=none;html=1;fontSize=14;" edge="1" parent="1" source="19" target="8">
                    <mxGeometry relative="1" as="geometry"/>
                </mxCell>
                <mxCell id="19" value="&lt;div style=&quot;color: rgb(212 , 212 , 212) ; background-color: rgb(30 , 30 , 30) ; font-family: &amp;#34;consolas&amp;#34; , &amp;#34;courier new&amp;#34; , monospace ; line-height: 19px&quot;&gt;&lt;span style=&quot;color: #569cd6&quot;&gt;string&lt;/span&gt;[] &lt;span style=&quot;color: #dcdcaa&quot;&gt;NewString&lt;/span&gt;(&lt;span style=&quot;color: #569cd6&quot;&gt;string&lt;/span&gt;[] &lt;span style=&quot;color: #9cdcfe&quot;&gt;massiv&lt;/span&gt;)&lt;/div&gt;" style="rounded=0;whiteSpace=wrap;html=1;fontSize=14;" vertex="1" parent="1">
                    <mxGeometry x="160" y="170" width="270" height="40" as="geometry"/>
                </mxCell>
                <mxCell id="22" value="Yes" style="text;html=1;align=center;verticalAlign=middle;resizable=0;points=[];autosize=1;strokeColor=none;fillColor=none;fontSize=14;" vertex="1" parent="1">
                    <mxGeometry x="395" y="630" width="40" height="20" as="geometry"/>
                </mxCell>
                <mxCell id="34" style="edgeStyle=none;html=1;fontSize=18;entryX=0;entryY=0.5;entryDx=0;entryDy=0;" edge="1" parent="1" source="23" target="12">
                    <mxGeometry relative="1" as="geometry">
                        <mxPoint x="60" y="450" as="targetPoint"/>
                        <Array as="points">
                            <mxPoint x="60" y="800"/>
                            <mxPoint x="60" y="480"/>
                            <mxPoint x="60" y="465"/>
                        </Array>
                    </mxGeometry>
                </mxCell>
                <mxCell id="23" value="&lt;font style=&quot;font-size: 18px&quot;&gt;i ++&lt;/font&gt;" style="whiteSpace=wrap;html=1;fontSize=24;" vertex="1" parent="1">
                    <mxGeometry x="240" y="780" width="109.5" height="40" as="geometry"/>
                </mxCell>
                <mxCell id="35" value="&lt;font style=&quot;font-size: 14px&quot;&gt;No&lt;/font&gt;" style="text;html=1;align=center;verticalAlign=middle;resizable=0;points=[];autosize=1;strokeColor=none;fillColor=none;fontSize=18;" vertex="1" parent="1">
                    <mxGeometry x="265" y="725" width="30" height="30" as="geometry"/>
                </mxCell>
                <mxCell id="39" value="&lt;div style=&quot;color: rgb(212 , 212 , 212) ; background-color: rgb(30 , 30 , 30) ; font-family: &amp;#34;consolas&amp;#34; , &amp;#34;courier new&amp;#34; , monospace ; font-size: 14px ; line-height: 19px&quot;&gt;&lt;span style=&quot;color: #9cdcfe&quot;&gt;result&lt;/span&gt; = &lt;span style=&quot;color: #9cdcfe&quot;&gt;temp&lt;/span&gt;.&lt;span style=&quot;color: #dcdcaa&quot;&gt;Split&lt;/span&gt;(&lt;span style=&quot;color: #ce9178&quot;&gt;' '&lt;/span&gt;)&lt;/div&gt;" style="whiteSpace=wrap;html=1;fontSize=24;" vertex="1" parent="1">
                    <mxGeometry x="430" y="435" width="200" height="60" as="geometry"/>
                </mxCell>
                <mxCell id="41" value="Yes" style="text;html=1;align=center;verticalAlign=middle;resizable=0;points=[];autosize=1;strokeColor=none;fillColor=none;fontSize=14;" vertex="1" parent="1">
                    <mxGeometry x="380" y="440" width="40" height="20" as="geometry"/>
                </mxCell>
            </root>
        </mxGraphModel>
    </diagram>
</mxfile>